<svg version="1.1" id="レイヤー_1" xmlns="http://www.w3.org/2000/svg" xmlns:xlink="http://www.w3.org/1999/xlink" x="0px"
	 y="0px" viewBox="0 0 160 108" style="enable-background:new 0 0 160 108;" xml:space="preserve">
<g>
	<path d="M114.4,9.4C104.8,6.3,92.9,4.5,80,4.5c-12.9,0-24.8,1.8-34.4,4.9c-25.5,8.2-43,25.2-43,44.8c0,27.6,34.6,50.1,77.4,50.1
		c42.7,0,77.4-22.4,77.4-50.1C157.4,34.6,139.9,17.6,114.4,9.4z M80,82.8c-6.4,0-11.6-12.5-11.9-28.3C71.9,54.9,75.9,55,80,55
		c4.1,0,8.1-0.2,11.9-0.5C91.6,70.3,86.4,82.8,80,82.8z M68.9,42.2c1.7-11.1,6-18.9,11.1-18.9c5,0,9.3,7.8,11.1,18.9
		c-3.5,0.3-7.3,0.5-11.1,0.5C76.2,42.7,72.5,42.5,68.9,42.2z M97.9,41.3C95.3,24,88.3,11.5,80,11.5c-8.3,0-15.3,12.4-17.9,29.8
		c-15.7-2.5-26.7-8-26.7-14.5c0-8.8,20-15.9,44.6-15.9s44.6,7.1,44.6,15.9C124.6,33.3,113.6,38.9,97.9,41.3z M13.9,52.4
		c0-8.5,3.3-16.4,9-23.3c-0.1,0.5-0.1,1-0.1,1.4c0,10.7,16,19.7,38.3,23.1c0,0.8,0,1.6,0,2.4c0,19.8,5.5,36.6,13.1,42.4
		C40.4,96.4,13.9,76.6,13.9,52.4z M85.8,98.5c7.6-5.8,13.1-22.6,13.1-42.4c0-0.8,0-1.6,0-2.4c22.3-3.3,38.3-12.4,38.3-23.1
		c0-0.5,0-1-0.1-1.4c5.7,6.8,9,14.8,9,23.3C146.1,76.6,119.6,96.4,85.8,98.5z"/>
</g>
</svg>
